<?xml version="1.0" encoding="utf-8"?>
<!-- Generator: Adobe Illustrator 19.0.1, SVG Export Plug-In . SVG Version: 6.00 Build 0)  -->
<svg version="1.1" id="Layer_1" xmlns="http://www.w3.org/2000/svg" xmlns:xlink="http://www.w3.org/1999/xlink" x="0px" y="0px"
	 viewBox="0 0 231.8 99.5" enable-background="new 0 0 231.8 99.5" xml:space="preserve">
<g id="XMLID_2459_">
	<g id="XMLID_2460_">
		<g id="XMLID_2472_">
			<path id="XMLID_2476_" fill="#231F20" d="M71.7,49.7c0,11.8-9.6,21.3-21.3,21.3c-11.8,0-21.3-9.6-21.3-21.3s9.6-21.3,21.3-21.3
				C62.3,28.4,71.7,38.1,71.7,49.7 M74.4,49.7c0-13.3-10.7-24-24-24c-13.1,0.2-23.8,10.9-23.8,24c0,13.3,10.7,24,24,24
				C63.7,73.7,74.4,63,74.4,49.7"/>
			<path id="XMLID_2475_" fill="#231F20" d="M63.5,44.4L63.5,44.4L62.6,45c0,0,0,0,0,0.2v15.5c0,0,0,0.2,0.2,0.2h0.9
				c0,0,0.2,0,0.2-0.2L63.5,44.4C63.7,44.5,63.7,44.4,63.5,44.4z"/>
			<path id="XMLID_2474_" fill="#231F20" d="M37.5,44.4C37.3,44.4,37.3,44.4,37.5,44.4c-0.2,0-0.2,0-0.2,0.2v15.9c0,0,0,0.2,0.2,0.2
				h0.9c0,0,0.2,0,0.2-0.2V45c0,0,0,0,0-0.2L37.5,44.4z"/>
			<path id="XMLID_2473_" fill="#231F20" d="M63.7,39.2C63.5,39,63.4,39,63.4,39l0,0l-2.5,0.2c-0.2,0-0.3,0-0.3,0.2L50.6,51
				l-9.9-11.7c-0.2-0.2-0.2-0.2-0.3-0.2L37.8,39l0,0c-0.2,0-0.3,0-0.3,0.2c-0.2,0.2-0.2,0.3-0.2,0.5l0.2,2.5c0,0.2,0.2,0.3,0.2,0.5
				l12.6,9.8c0.2,0,0.2,0.2,0.3,0.2l0,0c0.2,0,0.2,0,0.3-0.2l12.6-9.8c0.2-0.2,0.2-0.3,0.2-0.5l0.2-2.5
				C63.8,39.3,63.7,39.2,63.7,39.2z"/>
		</g>
		<g id="XMLID_2461_">
			<path id="XMLID_2471_" fill="#231F20" d="M90.4,43.7l2.8,8.3l0,0l2.7-8.3h3.7v12h-2.5v-8.4l0,0l-3,8.4H92l-3-8.4l0,0v8.4h-2.5
				v-12L90.4,43.7z"/>
			<path id="XMLID_2468_" fill="#231F20" d="M112.4,43.7l4.4,12h-2.7l-0.9-2.7h-4.4l-0.9,2.7h-2.7l4.6-12H112.4z M112.6,51l-1.5-4.4
				l0,0l-1.6,4.4H112.6z"/>
			<path id="XMLID_2467_" fill="#231F20" d="M125.1,43.7v5l4.7-5h3.3l-4.6,4.7l5.2,7.3h-3.3l-3.6-5.3l-1.5,1.5v3.8h-2.8v-12H125.1z"
				/>
			<path id="XMLID_2466_" fill="#231F20" d="M147.5,43.7V46h-6.4v2.5h5.8v2.1h-5.8v3h6.5v2.2h-9v-12H147.5z"/>
			<path id="XMLID_2465_" fill="#231F20" d="M153.5,46v-2.2h9.8V46h-3.6v9.8h-2.7V46H153.5z"/>
			<path id="XMLID_2464_" fill="#231F20" d="M172.3,43.7v12h-2.7v-12H172.3z"/>
			<path id="XMLID_2463_" fill="#231F20" d="M182.8,43.7l2.8,8.3l0,0l2.7-8.3h3.7v12h-2.5v-8.4l0,0l-3,8.4h-2.1l-3-8.4l0,0v8.4h-2.5
				v-12L182.8,43.7z"/>
			<path id="XMLID_2462_" fill="#231F20" d="M206.5,43.7V46h-6.4v2.5h5.8v2.1h-5.8v3h6.5v2.2h-9v-12H206.5z"/>
		</g>
	</g>
</g>
</svg>
