<?xml version="1.0" encoding="utf-8"?>
<!-- Generator: Adobe Illustrator 19.0.1, SVG Export Plug-In . SVG Version: 6.00 Build 0)  -->
<svg version="1.1" id="Layer_1" xmlns="http://www.w3.org/2000/svg" xmlns:xlink="http://www.w3.org/1999/xlink" x="0px" y="0px"
	 viewBox="0 0 124 124" enable-background="new 0 0 124 124" xml:space="preserve">
<g id="XMLID_101_">
	<path id="XMLID_438_" fill="#FFFFFF" d="M115.4,62c0,29.4-24,53.4-53.4,53.4S8.6,91.4,8.6,62S32.6,8.6,62,8.6
		C91.4,8.6,115.4,32.6,115.4,62 M122,62c0-33.1-26.9-60-60-60S2,28.9,2,62s26.9,60,60,60S122,95.1,122,62"/>
	<path fill="#FFFFFF" d="M60.4,67.7l-30.9-24c-0.4-0.3-0.6-0.7-0.6-1.1l-0.2-5.8c0-0.9,0.7-1.6,1.6-1.6l5.8,0.2
		c0.4,0,0.8,0.2,1.1,0.5L62,65l24.8-29.1c0.3-0.3,0.7-0.5,1.1-0.5l5.8-0.2c0.9,0,1.6,0.7,1.6,1.6l-0.2,5.8c0,0.4-0.2,0.9-0.6,1.1
		l-30.9,24C62.6,68.4,61.4,68.4,60.4,67.7z"/>
	<path fill="#FFFFFF" d="M28.9,88.9h2.7V50.5c0-0.1-0.1-0.3-0.2-0.4l-1.8-1.4c-0.3-0.2-0.7,0-0.7,0.4V88.9z"/>
	<path fill="#FFFFFF" d="M95.1,88.9h-2.7V50.5c0-0.1,0.1-0.3,0.2-0.4l1.8-1.4c0.3-0.2,0.7,0,0.7,0.4V88.9z"/>
</g>
</svg>
