<?xml version="1.0" encoding="UTF-8" standalone="no"?>
<svg width="300px" height="80px" viewBox="0 0 300 80" version="1.1" xmlns="http://www.w3.org/2000/svg" xmlns:xlink="http://www.w3.org/1999/xlink" xmlns:sketch="http://www.bohemiancoding.com/sketch/ns">
    <!-- Generator: Sketch 3.4.2 (15855) - http://www.bohemiancoding.com/sketch -->
    <title>Artboard</title>
    <desc>Created with Sketch.</desc>
    <defs></defs>
    <g id="Page-1" stroke="none" stroke-width="1" fill="none" fill-rule="evenodd" sketch:type="MSPage">
        <g id="Artboard" sketch:type="MSArtboardGroup">
            <g id="logo" sketch:type="MSLayerGroup">
                <g id="XMLID_1016_" transform="translate(99.000000, 30.000000)" fill="#FFFFFF" sketch:type="MSShapeGroup">
                    <path d="M7.3,0.1 L12,13.9 L12,13.9 L16.4,0.1 L22.6,0.1 L22.6,20.1 L18.4,20.1 L18.4,6 L18.4,6 L13.5,20.1 L10,20.1 L5,6 L5,6 L5,20.1 L0.8,20.1 L0.8,0.1 L7.3,0.1 L7.3,0.1 Z" id="XMLID_1044_"></path>
                    <path d="M43.9,0.1 L51.3,20.1 L46.9,20.1 L45.4,15.7 L38,15.7 L36.5,20.1 L32.1,20.1 L39.7,0.1 L43.9,0.1 L43.9,0.1 Z M44.2,12.2 L41.7,4.8 L41.7,4.8 L39,12.2 L44.2,12.2 L44.2,12.2 Z" id="XMLID_1025_"></path>
                    <path d="M65.1,0.1 L65.1,8.5 L73,0.1 L78.4,0.1 L70.8,8 L79.4,20.1 L74,20.1 L68.1,11.2 L65.6,13.7 L65.6,20.1 L60.9,20.1 L60.9,0.1 L65.1,0.1 L65.1,0.1 Z" id="XMLID_1024_"></path>
                    <path d="M102.3,0.1 L102.3,3.8 L91.7,3.8 L91.7,8 L101.3,8 L101.3,11.5 L91.7,11.5 L91.7,16.4 L102.6,16.4 L102.6,20.1 L87.6,20.1 L87.6,0.1 L102.3,0.1 L102.3,0.1 Z" id="XMLID_1023_"></path>
                    <path d="M112.4,3.8 L112.4,0.1 L128.7,0.1 L128.7,3.8 L122.8,3.8 L122.8,20.1 L118.4,20.1 L118.4,3.8 L112.4,3.8 L112.4,3.8 Z" id="XMLID_1022_"></path>
                    <path d="M143.6,0.1 L143.6,20.1 L139.2,20.1 L139.2,0.1 L143.6,0.1 L143.6,0.1 Z" id="XMLID_1021_"></path>
                    <path d="M161.1,0.1 L165.8,13.9 L165.8,13.9 L170.2,0.1 L176.4,0.1 L176.4,20.1 L172.2,20.1 L172.2,6 L172.2,6 L167.3,20.1 L163.8,20.1 L158.9,6 L158.9,6 L158.9,20.1 L154.7,20.1 L154.7,0.1 L161.1,0.1 L161.1,0.1 Z" id="XMLID_1020_"></path>
                    <path d="M200.6,0.1 L200.6,3.8 L190,3.8 L190,8 L199.6,8 L199.6,11.5 L190,11.5 L190,16.4 L200.9,16.4 L200.9,20.1 L185.9,20.1 L185.9,0.1 L200.6,0.1 L200.6,0.1 Z" id="XMLID_1019_"></path>
                </g>
                <g id="XMLID_657_" sketch:type="MSShapeGroup">
                    <path d="M75.5,40 C75.5,59.6 59.5,75.6 39.9,75.6 C20.3,75.6 4.3,59.6 4.3,40 C4.3,20.4 20.3,4.4 39.9,4.4 C59.6,4.5 75.5,20.4 75.5,40 M79.9,40 C79.9,18 62,0 39.9,0 C17.8,0 0,18 0,40 C0,62 17.9,80 40,80 C62.1,80 79.9,62.1 79.9,40" id="XMLID_2395_" fill="#CCCCCC"></path>
                    <g id="XMLID_1634_" transform="translate(17.000000, 22.000000)" fill="#26E6B4">
                        <path d="M44.8,9.1 L44.6,9.1 L43.1,10 L43.1,10.2 L43.1,35.9 C43.1,36.1 43.1,36.1 43.3,36.1 L44.8,36.1 C45,36.1 45,36.1 45,35.9 L45,9.3 C44.8,9.2 44.8,9.2 44.8,9.1 L44.8,9.1 Z" id="XMLID_1698_"></path>
                        <path d="M1.2,9.1 L1,9.1 L0.8,9.3 L0.8,35.9 C0.8,36.1 1,36.1 1,36.1 L2.5,36.1 C2.7,36.1 2.7,36.1 2.7,35.9 L2.7,10.4 C2.7,10.4 2.7,10.2 2.5,10.2 L1.2,9.1 L1.2,9.1 Z" id="XMLID_1697_"></path>
                        <path d="M44.8,0.3 C44.6,0.1 44.3,0 44.2,0 L44.2,0 L39.9,0.3 C39.6,0.3 39.4,0.5 39.3,0.6 L23,20 L6.4,0.6 C6.2,0.4 5.9,0.3 5.8,0.3 L1.7,0.1 L1.7,0.1 C1.4,0.1 1.2,0.3 1.1,0.4 C0.9,0.6 0.8,0.9 0.8,1 L1,5.1 C1,5.4 1.2,5.6 1.3,5.7 L22.4,22.1 C22.6,22.3 22.7,22.3 23,22.3 L23,22.3 C23.2,22.3 23.5,22.3 23.6,22.1 L44.6,5.7 C44.8,5.5 44.9,5.2 44.9,5.1 L45,1 C45.1,0.7 45,0.4 44.8,0.3 L44.8,0.3 Z" id="XMLID_1696_"></path>
                    </g>
                </g>
            </g>
        </g>
    </g>
</svg>